<?xml version="1.0" encoding="UTF-8" standalone="no"?>
<!DOCTYPE svg PUBLIC "-//W3C//DTD SVG 1.1//EN"
 "http://www.w3.org/Graphics/SVG/1.1/DTD/svg11.dtd">
<!-- Generated by graphviz version 15.1.1 (20260805.0921)
 -->
<!-- Title: L01 Pages: 1 -->
<svg width="790pt" height="118pt"
 viewBox="0.00 0.00 790.00 118.00" xmlns="http://www.w3.org/2000/svg" xmlns:xlink="http://www.w3.org/1999/xlink">
<g id="graph0" class="graph" transform="scale(1 1) rotate(0) translate(4 114.41)">
<title>L01</title>
<polygon fill="white" stroke="none" points="-4,4 -4,-114.41 786.29,-114.41 786.29,4 -4,4"/>
<text xml:space="preserve" text-anchor="middle" x="391.15" y="-77.11" font-family="sans-serif" font-size="14.00" fill="#343a40">C++ Compilation Pipeline</text>
<!-- src -->
<g id="node1" class="node">
<title>src</title>
<path fill="#e8f5e9" stroke="#388e3c" stroke-width="2" d="M103.8,-59.03C103.8,-59.03 12,-59.03 12,-59.03 6,-59.03 0,-53.03 0,-47.03 0,-47.03 0,-22.13 0,-22.13 0,-16.13 6,-10.13 12,-10.13 12,-10.13 103.8,-10.13 103.8,-10.13 109.8,-10.13 115.8,-16.13 115.8,-22.13 115.8,-22.13 115.8,-47.03 115.8,-47.03 115.8,-53.03 109.8,-59.03 103.8,-59.03"/>
<text xml:space="preserve" text-anchor="middle" x="57.9" y="-38.53" font-family="sans-serif" font-size="14.00" fill="#212529">Source Code</text>
<text xml:space="preserve" text-anchor="middle" x="57.9" y="-21.28" font-family="sans-serif" font-size="14.00" fill="#212529">(.cpp)</text>
</g>
<!-- comp -->
<g id="node2" class="node">
<title>comp</title>
<ellipse fill="#fff3e0" stroke="#f57c00" stroke-width="2" cx="264.18" cy="-34.58" rx="64.38" ry="34.58"/>
<text xml:space="preserve" text-anchor="middle" x="264.18" y="-38.53" font-family="sans-serif" font-size="14.00" fill="#212529">Compiler</text>
<text xml:space="preserve" text-anchor="middle" x="264.18" y="-21.28" font-family="sans-serif" font-size="14.00" fill="#212529">(g++)</text>
</g>
<!-- src&#45;&gt;comp -->
<g id="edge1" class="edge">
<title>src&#45;&gt;comp</title>
<path fill="none" stroke="#0288d1" stroke-width="2" d="M116.62,-34.58C138.22,-34.58 163.11,-34.58 186.18,-34.58"/>
<polygon fill="#0288d1" stroke="#0288d1" stroke-width="2" points="186.12,-38.08 196.12,-34.58 186.12,-31.08 186.12,-38.08"/>
<text xml:space="preserve" text-anchor="middle" x="157.8" y="-37.63" font-family="sans-serif" font-size="11.00" fill="#495057"> Compile</text>
</g>
<!-- obj -->
<g id="node3" class="node">
<title>obj</title>
<path fill="#e8f5e9" stroke="#388e3c" stroke-width="2" d="M467.11,-59.03C467.11,-59.03 377.56,-59.03 377.56,-59.03 371.56,-59.03 365.56,-53.03 365.56,-47.03 365.56,-47.03 365.56,-22.13 365.56,-22.13 365.56,-16.13 371.56,-10.13 377.56,-10.13 377.56,-10.13 467.11,-10.13 467.11,-10.13 473.11,-10.13 479.11,-16.13 479.11,-22.13 479.11,-22.13 479.11,-47.03 479.11,-47.03 479.11,-53.03 473.11,-59.03 467.11,-59.03"/>
<text xml:space="preserve" text-anchor="middle" x="422.34" y="-38.53" font-family="sans-serif" font-size="14.00" fill="#212529">Object Code</text>
<text xml:space="preserve" text-anchor="middle" x="422.34" y="-21.28" font-family="sans-serif" font-size="14.00" fill="#212529">(.o)</text>
</g>
<!-- comp&#45;&gt;obj -->
<g id="edge2" class="edge">
<title>comp&#45;&gt;obj</title>
<path fill="none" stroke="#0288d1" stroke-width="2" d="M329.15,-34.58C336.61,-34.58 344.25,-34.58 351.78,-34.58"/>
<polygon fill="#0288d1" stroke="#0288d1" stroke-width="2" points="351.7,-38.08 361.7,-34.58 351.7,-31.08 351.7,-38.08"/>
</g>
<!-- link -->
<g id="node4" class="node">
<title>link</title>
<ellipse fill="#fff3e0" stroke="#f57c00" stroke-width="2" cx="590.68" cy="-34.58" rx="50.06" ry="34.58"/>
<text xml:space="preserve" text-anchor="middle" x="590.68" y="-38.53" font-family="sans-serif" font-size="14.00" fill="#212529">Linker</text>
<text xml:space="preserve" text-anchor="middle" x="590.68" y="-21.28" font-family="sans-serif" font-size="14.00" fill="#212529">(ld)</text>
</g>
<!-- obj&#45;&gt;link -->
<g id="edge3" class="edge">
<title>obj&#45;&gt;link</title>
<path fill="none" stroke="#0288d1" stroke-width="2" d="M479.65,-34.58C494.9,-34.58 511.49,-34.58 527.05,-34.58"/>
<polygon fill="#0288d1" stroke="#0288d1" stroke-width="2" points="526.81,-38.08 536.81,-34.58 526.81,-31.08 526.81,-38.08"/>
<text xml:space="preserve" text-anchor="middle" x="509.86" y="-37.63" font-family="sans-serif" font-size="11.00" fill="#495057"> Link</text>
</g>
<!-- exe -->
<g id="node5" class="node">
<title>exe</title>
<path fill="#c8e6c9" stroke="#2e7d32" stroke-width="3" d="M770.29,-59.03C770.29,-59.03 689.74,-59.03 689.74,-59.03 683.74,-59.03 677.74,-53.03 677.74,-47.03 677.74,-47.03 677.74,-22.13 677.74,-22.13 677.74,-16.13 683.74,-10.13 689.74,-10.13 689.74,-10.13 770.29,-10.13 770.29,-10.13 776.29,-10.13 782.29,-16.13 782.29,-22.13 782.29,-22.13 782.29,-47.03 782.29,-47.03 782.29,-53.03 776.29,-59.03 770.29,-59.03"/>
<text xml:space="preserve" text-anchor="middle" x="730.02" y="-38.53" font-family="sans-serif" font-size="14.00" fill="#212529">Executable</text>
<text xml:space="preserve" text-anchor="middle" x="730.02" y="-21.28" font-family="sans-serif" font-size="14.00" fill="#212529">(.exe)</text>
</g>
<!-- link&#45;&gt;exe -->
<g id="edge4" class="edge">
<title>link&#45;&gt;exe</title>
<path fill="none" stroke="#0288d1" stroke-width="2" d="M641.65,-34.58C648.83,-34.58 656.31,-34.58 663.74,-34.58"/>
<polygon fill="#0288d1" stroke="#0288d1" stroke-width="2" points="663.51,-38.08 673.51,-34.58 663.51,-31.08 663.51,-38.08"/>
</g>
</g>
</svg>
