<?xml version="1.0" encoding="UTF-8" standalone="no"?>
<!DOCTYPE svg PUBLIC "-//W3C//DTD SVG 1.1//EN"
 "http://www.w3.org/Graphics/SVG/1.1/DTD/svg11.dtd">
<!-- Generated by graphviz version 15.1.1 (20260805.0921)
 -->
<!-- Title: L10 Pages: 1 -->
<svg width="219pt" height="171pt"
 viewBox="0.00 0.00 219.00 171.00" xmlns="http://www.w3.org/2000/svg" xmlns:xlink="http://www.w3.org/1999/xlink">
<g id="graph0" class="graph" transform="scale(1 1) rotate(0) translate(4 167)">
<title>L10</title>
<polygon fill="white" stroke="none" points="-4,4 -4,-167 215,-167 215,4 -4,4"/>
<text xml:space="preserve" text-anchor="middle" x="105.5" y="-129.7" font-family="sans-serif" font-size="14.00" fill="#343a40">Integer Types Memory Sizes</text>
<!-- sizes -->
<g id="node1" class="node">
<title>sizes</title>
<polygon fill="#e1f5fe" stroke="none" points="17.75,-80.5 17.75,-115.75 139.25,-115.75 139.25,-80.5 17.75,-80.5"/>
<polygon fill="none" stroke="none" points="17.75,-80.5 17.75,-115.75 139.25,-115.75 139.25,-80.5 17.75,-80.5"/>
<text xml:space="preserve" text-anchor="start" x="26.75" y="-93.25" font-family="sans-serif" font-size="14.00" fill="#212529">short (2 Bytes)</text>
<polygon fill="#c8e6c9" stroke="none" points="17.75,-43.25 17.75,-78.5 157.25,-78.5 157.25,-43.25 17.75,-43.25"/>
<polygon fill="none" stroke="none" points="17.75,-43.25 17.75,-78.5 157.25,-78.5 157.25,-43.25 17.75,-43.25"/>
<text xml:space="preserve" text-anchor="start" x="44.75" y="-56" font-family="sans-serif" font-size="14.00" fill="#212529">int (4 Bytes)</text>
<polygon fill="#ffcdd2" stroke="none" points="17.75,-6 17.75,-41.25 193.25,-41.25 193.25,-6 17.75,-6"/>
<polygon fill="none" stroke="none" points="17.75,-6 17.75,-41.25 193.25,-41.25 193.25,-6 17.75,-6"/>
<text xml:space="preserve" text-anchor="start" x="39.5" y="-18.75" font-family="sans-serif" font-size="14.00" fill="#212529">long long (8 Bytes)</text>
</g>
</g>
</svg>
