<svg width="600" height="220" xmlns="http://www.w3.org/2000/svg">
<rect width="100%" height="100%" fill="#ffffff" />
<style>
  .title { font-family: sans-serif; font-size: 16px; font-weight: bold; fill: #343a40; }
  .text { font-family: sans-serif; font-size: 14px; fill: #212529; }
  .mono { font-family: monospace; font-size: 14px; fill: #e63946; font-weight: bold; }
  .addr { font-family: monospace; font-size: 12px; fill: #6c757d; }
  .node { fill: #e1f5fe; stroke: #0288d1; stroke-width: 2; }
  .node-memo { fill: #ffe0b2; stroke: #f57c00; stroke-width: 2; }
  .node-base { fill: #e8f5e9; stroke: #388e3c; stroke-width: 2; }
  .box { fill: #f8f9fa; stroke: #adb5bd; stroke-width: 2; }
  .box-pivot { fill: #ffcdd2; stroke: #d32f2f; stroke-width: 2; }
  .box-sorted { fill: #c8e6c9; stroke: #388e3c; stroke-width: 2; }
</style>

    <text class="title" x="50" y="30">Binary Search Execution: target = 16</text>
    <rect x="50" y="80" width="40" height="40" rx="4" fill="#f8f9fa" stroke="#adb5bd" stroke-width="2"/>
<text x="70" y="105" class="text" text-anchor="middle" font-weight="bold">2</text>
<text x="70" y="140" class="addr" text-anchor="middle">0</text>
<text x="70" y="60" class="mono" text-anchor="middle" fill="#d32f2f">low</text>
<line x1="70" y1="65" x2="70" y2="75" stroke="#d32f2f" stroke-width="2"/>
<rect x="100" y="80" width="40" height="40" rx="4" fill="#f8f9fa" stroke="#adb5bd" stroke-width="2"/>
<text x="120" y="105" class="text" text-anchor="middle" font-weight="bold">5</text>
<text x="120" y="140" class="addr" text-anchor="middle">1</text>
<rect x="150" y="80" width="40" height="40" rx="4" fill="#f8f9fa" stroke="#adb5bd" stroke-width="2"/>
<text x="170" y="105" class="text" text-anchor="middle" font-weight="bold">8</text>
<text x="170" y="140" class="addr" text-anchor="middle">2</text>
<rect x="200" y="80" width="40" height="40" rx="4" fill="#f8f9fa" stroke="#adb5bd" stroke-width="2"/>
<text x="220" y="105" class="text" text-anchor="middle" font-weight="bold">12</text>
<text x="220" y="140" class="addr" text-anchor="middle">3</text>
<rect x="250" y="80" width="40" height="40" rx="4" fill="#e3f2fd" stroke="#1976d2" stroke-width="2"/>
<text x="270" y="105" class="text" text-anchor="middle" font-weight="bold">16</text>
<text x="270" y="140" class="addr" text-anchor="middle">4</text>
<text x="270" y="60" class="mono" text-anchor="middle" fill="#388e3c">mid</text>
<line x1="270" y1="65" x2="270" y2="75" stroke="#388e3c" stroke-width="2"/>
<rect x="300" y="80" width="40" height="40" rx="4" fill="#f8f9fa" stroke="#adb5bd" stroke-width="2"/>
<text x="320" y="105" class="text" text-anchor="middle" font-weight="bold">23</text>
<text x="320" y="140" class="addr" text-anchor="middle">5</text>
<rect x="350" y="80" width="40" height="40" rx="4" fill="#f8f9fa" stroke="#adb5bd" stroke-width="2"/>
<text x="370" y="105" class="text" text-anchor="middle" font-weight="bold">38</text>
<text x="370" y="140" class="addr" text-anchor="middle">6</text>
<rect x="400" y="80" width="40" height="40" rx="4" fill="#f8f9fa" stroke="#adb5bd" stroke-width="2"/>
<text x="420" y="105" class="text" text-anchor="middle" font-weight="bold">56</text>
<text x="420" y="140" class="addr" text-anchor="middle">7</text>
<rect x="450" y="80" width="40" height="40" rx="4" fill="#f8f9fa" stroke="#adb5bd" stroke-width="2"/>
<text x="470" y="105" class="text" text-anchor="middle" font-weight="bold">72</text>
<text x="470" y="140" class="addr" text-anchor="middle">8</text>
<rect x="500" y="80" width="40" height="40" rx="4" fill="#f8f9fa" stroke="#adb5bd" stroke-width="2"/>
<text x="520" y="105" class="text" text-anchor="middle" font-weight="bold">91</text>
<text x="520" y="140" class="addr" text-anchor="middle">9</text>
<text x="520" y="60" class="mono" text-anchor="middle" fill="#1976d2">high</text>
<line x1="520" y1="65" x2="520" y2="75" stroke="#1976d2" stroke-width="2"/>

    <text class="text" x="50" y="180">Formula: mid = low + (high - low) / 2</text>
    
</svg>