<?xml version="1.0" encoding="UTF-8" standalone="no"?>
<!DOCTYPE svg PUBLIC "-//W3C//DTD SVG 1.1//EN"
 "http://www.w3.org/Graphics/SVG/1.1/DTD/svg11.dtd">
<!-- Generated by graphviz version 15.1.1 (20260805.0921)
 -->
<!-- Title: call_stack Pages: 1 -->
<svg width="156pt" height="214pt"
 viewBox="0.00 0.00 156.00 214.00" xmlns="http://www.w3.org/2000/svg" xmlns:xlink="http://www.w3.org/1999/xlink">
<g id="graph0" class="graph" transform="scale(1 1) rotate(0) translate(4 210.25)">
<title>call_stack</title>
<polygon fill="white" stroke="none" points="-4,4 -4,-210.25 152.25,-210.25 152.25,4 -4,4"/>
<text xml:space="preserve" text-anchor="middle" x="74.12" y="-172.95" font-family="sans-serif" font-size="14.00" fill="#343a40">Call Stack</text>
<!-- s -->
<g id="node1" class="node">
<title>s</title>
<polygon fill="#e1f5fe" stroke="none" points="8,-4 8,-161 140.25,-161 140.25,-4 8,-4"/>
<polygon fill="#ffcdd2" stroke="none" points="8,-121.75 8,-161 140.25,-161 140.25,-121.75 8,-121.75"/>
<polygon fill="none" stroke="none" points="8,-121.75 8,-161 140.25,-161 140.25,-121.75 8,-121.75"/>
<text xml:space="preserve" text-anchor="start" x="32.12" y="-136.5" font-family="sans-serif" font-size="14.00" fill="#212529">fact(1) [Top]</text>
<polygon fill="none" stroke="none" points="8,-82.5 8,-121.75 140.25,-121.75 140.25,-82.5 8,-82.5"/>
<text xml:space="preserve" text-anchor="start" x="51.25" y="-97.25" font-family="sans-serif" font-size="14.00" fill="#212529">fact(2)</text>
<polygon fill="none" stroke="none" points="8,-43.25 8,-82.5 140.25,-82.5 140.25,-43.25 8,-43.25"/>
<text xml:space="preserve" text-anchor="start" x="51.25" y="-58" font-family="sans-serif" font-size="14.00" fill="#212529">fact(3)</text>
<polygon fill="#e8f5e9" stroke="none" points="8,-4 8,-43.25 140.25,-43.25 140.25,-4 8,-4"/>
<polygon fill="none" stroke="none" points="8,-4 8,-43.25 140.25,-43.25 140.25,-4 8,-4"/>
<text xml:space="preserve" text-anchor="start" x="19" y="-18.75" font-family="sans-serif" font-size="14.00" fill="#212529">main() [Bottom]</text>
</g>
</g>
</svg>
