<?xml version="1.0" encoding="UTF-8" standalone="no"?>
<!DOCTYPE svg PUBLIC "-//W3C//DTD SVG 1.1//EN"
 "http://www.w3.org/Graphics/SVG/1.1/DTD/svg11.dtd">
<!-- Generated by graphviz version 15.1.1 (20260805.0921)
 -->
<!-- Title: HanoiTree Pages: 1 -->
<svg width="708pt" height="302pt"
 viewBox="0.00 0.00 708.00 302.00" xmlns="http://www.w3.org/2000/svg" xmlns:xlink="http://www.w3.org/1999/xlink">
<g id="graph0" class="graph" transform="scale(1 1) rotate(0) translate(36 266.3)">
<title>HanoiTree</title>
<polygon fill="#ffffff" stroke="none" points="-36,36 -36,-266.3 672.05,-266.3 672.05,36 -36,36"/>
<text xml:space="preserve" text-anchor="middle" x="318.02" y="-211.1" font-family="sans-serif" font-size="16.00" fill="#343a40">Towers of Hanoi Recursion Tree (N=3)</text>
<!-- N_3_A_C_140736728500704_None_ -->
<g id="node1" class="node">
<title>N_3_A_C_140736728500704_None_</title>
<path fill="#e1f5fe" stroke="#0288d1" stroke-width="2" d="M386.55,-202.8C386.55,-202.8 286.5,-202.8 286.5,-202.8 280.5,-202.8 274.5,-196.8 274.5,-190.8 274.5,-190.8 274.5,-178.8 274.5,-178.8 274.5,-172.8 280.5,-166.8 286.5,-166.8 286.5,-166.8 386.55,-166.8 386.55,-166.8 392.55,-166.8 398.55,-172.8 398.55,-178.8 398.55,-178.8 398.55,-190.8 398.55,-190.8 398.55,-196.8 392.55,-202.8 386.55,-202.8"/>
<text xml:space="preserve" text-anchor="middle" x="336.52" y="-180.7" font-family="sans-serif" font-size="13.00" fill="#212529">Hanoi(3, A→C)</text>
</g>
<!-- N_2_A_B_140736728500704_N_3_A_C_140736728500704_None__L -->
<g id="node2" class="node">
<title>N_2_A_B_140736728500704_N_3_A_C_140736728500704_None__L</title>
<path fill="#e1f5fe" stroke="#0288d1" stroke-width="2" d="M241.55,-125.1C241.55,-125.1 141.5,-125.1 141.5,-125.1 135.5,-125.1 129.5,-119.1 129.5,-113.1 129.5,-113.1 129.5,-101.1 129.5,-101.1 129.5,-95.1 135.5,-89.1 141.5,-89.1 141.5,-89.1 241.55,-89.1 241.55,-89.1 247.55,-89.1 253.55,-95.1 253.55,-101.1 253.55,-101.1 253.55,-113.1 253.55,-113.1 253.55,-119.1 247.55,-125.1 241.55,-125.1"/>
<text xml:space="preserve" text-anchor="middle" x="191.53" y="-103" font-family="sans-serif" font-size="13.00" fill="#212529">Hanoi(2, A→B)</text>
</g>
<!-- N_3_A_C_140736728500704_None_&#45;&gt;N_2_A_B_140736728500704_N_3_A_C_140736728500704_None__L -->
<g id="edge1" class="edge">
<title>N_3_A_C_140736728500704_None_&#45;&gt;N_2_A_B_140736728500704_N_3_A_C_140736728500704_None__L</title>
<path fill="none" stroke="#adb5bd" stroke-width="2" d="M302.16,-165.86C282.73,-155.72 258.19,-142.9 237.16,-131.92"/>
<polygon fill="#adb5bd" stroke="#adb5bd" stroke-width="2" points="239.06,-128.97 228.58,-127.44 235.82,-135.17 239.06,-128.97"/>
</g>
<!-- M_3_A_C_140736728500704_None -->
<g id="node6" class="node">
<title>M_3_A_C_140736728500704_None</title>
<path fill="#f8f9fa" stroke="#adb5bd" stroke-width="2" d="M370.05,-130.8C370.05,-130.8 303,-130.8 303,-130.8 297,-130.8 291,-124.8 291,-118.8 291,-118.8 291,-95.4 291,-95.4 291,-89.4 297,-83.4 303,-83.4 303,-83.4 370.05,-83.4 370.05,-83.4 376.05,-83.4 382.05,-89.4 382.05,-95.4 382.05,-95.4 382.05,-118.8 382.05,-118.8 382.05,-124.8 376.05,-130.8 370.05,-130.8"/>
<text xml:space="preserve" text-anchor="middle" x="336.52" y="-111.25" font-family="sans-serif" font-size="13.00" fill="#212529">Move D3:</text>
<text xml:space="preserve" text-anchor="middle" x="336.52" y="-94.75" font-family="sans-serif" font-size="13.00" fill="#212529">A → C</text>
</g>
<!-- N_3_A_C_140736728500704_None_&#45;&gt;M_3_A_C_140736728500704_None -->
<g id="edge5" class="edge">
<title>N_3_A_C_140736728500704_None_&#45;&gt;M_3_A_C_140736728500704_None</title>
<path fill="none" stroke="#adb5bd" stroke-width="2" d="M336.52,-165.86C336.52,-159.47 336.52,-152.01 336.52,-144.62"/>
<polygon fill="#adb5bd" stroke="#adb5bd" stroke-width="2" points="340.03,-144.67 336.53,-134.67 333.03,-144.67 340.03,-144.67"/>
</g>
<!-- N_2_B_C_140736728500752_N_3_A_C_140736728500704_None__R -->
<g id="node7" class="node">
<title>N_2_B_C_140736728500752_N_3_A_C_140736728500704_None__R</title>
<path fill="#e1f5fe" stroke="#0288d1" stroke-width="2" d="M521.55,-125.1C521.55,-125.1 421.5,-125.1 421.5,-125.1 415.5,-125.1 409.5,-119.1 409.5,-113.1 409.5,-113.1 409.5,-101.1 409.5,-101.1 409.5,-95.1 415.5,-89.1 421.5,-89.1 421.5,-89.1 521.55,-89.1 521.55,-89.1 527.55,-89.1 533.55,-95.1 533.55,-101.1 533.55,-101.1 533.55,-113.1 533.55,-113.1 533.55,-119.1 527.55,-125.1 521.55,-125.1"/>
<text xml:space="preserve" text-anchor="middle" x="471.52" y="-103" font-family="sans-serif" font-size="13.00" fill="#212529">Hanoi(2, B→C)</text>
</g>
<!-- N_3_A_C_140736728500704_None_&#45;&gt;N_2_B_C_140736728500752_N_3_A_C_140736728500704_None__R -->
<g id="edge6" class="edge">
<title>N_3_A_C_140736728500704_None_&#45;&gt;N_2_B_C_140736728500752_N_3_A_C_140736728500704_None__R</title>
<path fill="none" stroke="#adb5bd" stroke-width="2" d="M368.52,-165.86C386.42,-155.82 408.99,-143.17 428.43,-132.26"/>
<polygon fill="#adb5bd" stroke="#adb5bd" stroke-width="2" points="430.11,-135.34 437.12,-127.39 426.69,-129.23 430.11,-135.34"/>
</g>
<!-- N_1_A_C_140736728500704_N_2_A_B_140736728500704_N_3_A_C_140736728500704_None__L_L -->
<g id="node3" class="node">
<title>N_1_A_C_140736728500704_N_2_A_B_140736728500704_N_3_A_C_140736728500704_None__L_L</title>
<path fill="#e8f5e9" stroke="#388e3c" stroke-width="2" d="M79.05,-47.4C79.05,-47.4 12,-47.4 12,-47.4 6,-47.4 0,-41.4 0,-35.4 0,-35.4 0,-12 0,-12 0,-6 6,0 12,0 12,0 79.05,0 79.05,0 85.05,0 91.05,-6 91.05,-12 91.05,-12 91.05,-35.4 91.05,-35.4 91.05,-41.4 85.05,-47.4 79.05,-47.4"/>
<text xml:space="preserve" text-anchor="middle" x="45.53" y="-27.85" font-family="sans-serif" font-size="13.00" fill="#212529">Move D1:</text>
<text xml:space="preserve" text-anchor="middle" x="45.53" y="-11.35" font-family="sans-serif" font-size="13.00" fill="#212529">A → C</text>
</g>
<!-- N_2_A_B_140736728500704_N_3_A_C_140736728500704_None__L&#45;&gt;N_1_A_C_140736728500704_N_2_A_B_140736728500704_N_3_A_C_140736728500704_None__L_L -->
<g id="edge2" class="edge">
<title>N_2_A_B_140736728500704_N_3_A_C_140736728500704_None__L&#45;&gt;N_1_A_C_140736728500704_N_2_A_B_140736728500704_N_3_A_C_140736728500704_None__L_L</title>
<path fill="none" stroke="#adb5bd" stroke-width="2" d="M159.48,-88.24C141.86,-78.41 119.53,-65.96 99.31,-54.69"/>
<polygon fill="#adb5bd" stroke="#adb5bd" stroke-width="2" points="101.1,-51.68 90.67,-49.87 97.7,-57.79 101.1,-51.68"/>
</g>
<!-- M_2_A_B_140736728500704_N_3_A_C_140736728500704_None_ -->
<g id="node4" class="node">
<title>M_2_A_B_140736728500704_N_3_A_C_140736728500704_None_</title>
<path fill="#f8f9fa" stroke="#adb5bd" stroke-width="2" d="M188.05,-47.4C188.05,-47.4 121,-47.4 121,-47.4 115,-47.4 109,-41.4 109,-35.4 109,-35.4 109,-12 109,-12 109,-6 115,0 121,0 121,0 188.05,0 188.05,0 194.05,0 200.05,-6 200.05,-12 200.05,-12 200.05,-35.4 200.05,-35.4 200.05,-41.4 194.05,-47.4 188.05,-47.4"/>
<text xml:space="preserve" text-anchor="middle" x="154.53" y="-27.85" font-family="sans-serif" font-size="13.00" fill="#212529">Move D2:</text>
<text xml:space="preserve" text-anchor="middle" x="154.53" y="-11.35" font-family="sans-serif" font-size="13.00" fill="#212529">A → B</text>
</g>
<!-- N_2_A_B_140736728500704_N_3_A_C_140736728500704_None__L&#45;&gt;M_2_A_B_140736728500704_N_3_A_C_140736728500704_None_ -->
<g id="edge3" class="edge">
<title>N_2_A_B_140736728500704_N_3_A_C_140736728500704_None__L&#45;&gt;M_2_A_B_140736728500704_N_3_A_C_140736728500704_None_</title>
<path fill="none" stroke="#adb5bd" stroke-width="2" d="M183.5,-88.44C179.69,-80.06 175,-69.74 170.51,-59.87"/>
<polygon fill="#adb5bd" stroke="#adb5bd" stroke-width="2" points="173.78,-58.61 166.46,-50.96 167.41,-61.51 173.78,-58.61"/>
</g>
<!-- N_1_C_B_140736728500800_N_2_A_B_140736728500704_N_3_A_C_140736728500704_None__L_R -->
<g id="node5" class="node">
<title>N_1_C_B_140736728500800_N_2_A_B_140736728500704_N_3_A_C_140736728500704_None__L_R</title>
<path fill="#e8f5e9" stroke="#388e3c" stroke-width="2" d="M297.05,-47.4C297.05,-47.4 230,-47.4 230,-47.4 224,-47.4 218,-41.4 218,-35.4 218,-35.4 218,-12 218,-12 218,-6 224,0 230,0 230,0 297.05,0 297.05,0 303.05,0 309.05,-6 309.05,-12 309.05,-12 309.05,-35.4 309.05,-35.4 309.05,-41.4 303.05,-47.4 297.05,-47.4"/>
<text xml:space="preserve" text-anchor="middle" x="263.52" y="-27.85" font-family="sans-serif" font-size="13.00" fill="#212529">Move D1:</text>
<text xml:space="preserve" text-anchor="middle" x="263.52" y="-11.35" font-family="sans-serif" font-size="13.00" fill="#212529">C → B</text>
</g>
<!-- N_2_A_B_140736728500704_N_3_A_C_140736728500704_None__L&#45;&gt;N_1_C_B_140736728500800_N_2_A_B_140736728500704_N_3_A_C_140736728500704_None__L_R -->
<g id="edge4" class="edge">
<title>N_2_A_B_140736728500704_N_3_A_C_140736728500704_None__L&#45;&gt;N_1_C_B_140736728500800_N_2_A_B_140736728500704_N_3_A_C_140736728500704_None__L_R</title>
<path fill="none" stroke="#adb5bd" stroke-width="2" d="M207.15,-88.44C215.05,-79.51 224.9,-68.37 234.14,-57.92"/>
<polygon fill="#adb5bd" stroke="#adb5bd" stroke-width="2" points="236.73,-60.28 240.73,-50.47 231.49,-55.64 236.73,-60.28"/>
</g>
<!-- N_1_B_A_140736728500752_N_2_B_C_140736728500752_N_3_A_C_140736728500704_None__R_L -->
<g id="node8" class="node">
<title>N_1_B_A_140736728500752_N_2_B_C_140736728500752_N_3_A_C_140736728500704_None__R_L</title>
<path fill="#e8f5e9" stroke="#388e3c" stroke-width="2" d="M406.05,-47.4C406.05,-47.4 339,-47.4 339,-47.4 333,-47.4 327,-41.4 327,-35.4 327,-35.4 327,-12 327,-12 327,-6 333,0 339,0 339,0 406.05,0 406.05,0 412.05,0 418.05,-6 418.05,-12 418.05,-12 418.05,-35.4 418.05,-35.4 418.05,-41.4 412.05,-47.4 406.05,-47.4"/>
<text xml:space="preserve" text-anchor="middle" x="372.52" y="-27.85" font-family="sans-serif" font-size="13.00" fill="#212529">Move D1:</text>
<text xml:space="preserve" text-anchor="middle" x="372.52" y="-11.35" font-family="sans-serif" font-size="13.00" fill="#212529">B → A</text>
</g>
<!-- N_2_B_C_140736728500752_N_3_A_C_140736728500704_None__R&#45;&gt;N_1_B_A_140736728500752_N_2_B_C_140736728500752_N_3_A_C_140736728500704_None__R_L -->
<g id="edge7" class="edge">
<title>N_2_B_C_140736728500752_N_3_A_C_140736728500704_None__R&#45;&gt;N_1_B_A_140736728500752_N_2_B_C_140736728500752_N_3_A_C_140736728500704_None__R_L</title>
<path fill="none" stroke="#adb5bd" stroke-width="2" d="M450.04,-88.44C438.62,-79.05 424.24,-67.22 410.97,-56.31"/>
<polygon fill="#adb5bd" stroke="#adb5bd" stroke-width="2" points="413.39,-53.77 403.44,-50.12 408.95,-59.18 413.39,-53.77"/>
</g>
<!-- M_2_B_C_140736728500752_N_3_A_C_140736728500704_None_ -->
<g id="node9" class="node">
<title>M_2_B_C_140736728500752_N_3_A_C_140736728500704_None_</title>
<path fill="#f8f9fa" stroke="#adb5bd" stroke-width="2" d="M515.05,-47.4C515.05,-47.4 448,-47.4 448,-47.4 442,-47.4 436,-41.4 436,-35.4 436,-35.4 436,-12 436,-12 436,-6 442,0 448,0 448,0 515.05,0 515.05,0 521.05,0 527.05,-6 527.05,-12 527.05,-12 527.05,-35.4 527.05,-35.4 527.05,-41.4 521.05,-47.4 515.05,-47.4"/>
<text xml:space="preserve" text-anchor="middle" x="481.52" y="-27.85" font-family="sans-serif" font-size="13.00" fill="#212529">Move D2:</text>
<text xml:space="preserve" text-anchor="middle" x="481.52" y="-11.35" font-family="sans-serif" font-size="13.00" fill="#212529">B → C</text>
</g>
<!-- N_2_B_C_140736728500752_N_3_A_C_140736728500704_None__R&#45;&gt;M_2_B_C_140736728500752_N_3_A_C_140736728500704_None_ -->
<g id="edge8" class="edge">
<title>N_2_B_C_140736728500752_N_3_A_C_140736728500704_None__R&#45;&gt;M_2_B_C_140736728500752_N_3_A_C_140736728500704_None_</title>
<path fill="none" stroke="#adb5bd" stroke-width="2" d="M473.69,-88.44C474.69,-80.34 475.91,-70.42 477.08,-60.84"/>
<polygon fill="#adb5bd" stroke="#adb5bd" stroke-width="2" points="480.52,-61.56 478.27,-51.2 473.58,-60.7 480.52,-61.56"/>
</g>
<!-- N_1_A_C_140736728500704_N_2_B_C_140736728500752_N_3_A_C_140736728500704_None__R_R -->
<g id="node10" class="node">
<title>N_1_A_C_140736728500704_N_2_B_C_140736728500752_N_3_A_C_140736728500704_None__R_R</title>
<path fill="#e8f5e9" stroke="#388e3c" stroke-width="2" d="M624.05,-47.4C624.05,-47.4 557,-47.4 557,-47.4 551,-47.4 545,-41.4 545,-35.4 545,-35.4 545,-12 545,-12 545,-6 551,0 557,0 557,0 624.05,0 624.05,0 630.05,0 636.05,-6 636.05,-12 636.05,-12 636.05,-35.4 636.05,-35.4 636.05,-41.4 630.05,-47.4 624.05,-47.4"/>
<text xml:space="preserve" text-anchor="middle" x="590.52" y="-27.85" font-family="sans-serif" font-size="13.00" fill="#212529">Move D1:</text>
<text xml:space="preserve" text-anchor="middle" x="590.52" y="-11.35" font-family="sans-serif" font-size="13.00" fill="#212529">A → C</text>
</g>
<!-- N_2_B_C_140736728500752_N_3_A_C_140736728500704_None__R&#45;&gt;N_1_A_C_140736728500704_N_2_B_C_140736728500752_N_3_A_C_140736728500704_None__R_R -->
<g id="edge9" class="edge">
<title>N_2_B_C_140736728500752_N_3_A_C_140736728500704_None__R&#45;&gt;N_1_A_C_140736728500704_N_2_B_C_140736728500752_N_3_A_C_140736728500704_None__R_R</title>
<path fill="none" stroke="#adb5bd" stroke-width="2" d="M497.64,-88.24C511.67,-78.64 529.36,-66.54 545.53,-55.48"/>
<polygon fill="#adb5bd" stroke="#adb5bd" stroke-width="2" points="547.11,-58.64 553.39,-50.1 543.16,-52.86 547.11,-58.64"/>
</g>
</g>
</svg>
