<?xml version="1.0" encoding="UTF-8" standalone="no"?>
<!DOCTYPE svg PUBLIC "-//W3C//DTD SVG 1.1//EN"
 "http://www.w3.org/Graphics/SVG/1.1/DTD/svg11.dtd">
<!-- Generated by graphviz version 15.1.1 (20260805.0921)
 -->
<!-- Title: L36_BestCase Pages: 1 -->
<svg width="534pt" height="157pt"
 viewBox="0.00 0.00 534.00 157.00" xmlns="http://www.w3.org/2000/svg" xmlns:xlink="http://www.w3.org/1999/xlink">
<g id="graph0" class="graph" transform="scale(1 1) rotate(0) translate(4 153.25)">
<title>L36_BestCase</title>
<polygon fill="white" stroke="none" points="-4,4 -4,-153.25 530.12,-153.25 530.12,4 -4,4"/>
<text xml:space="preserve" text-anchor="middle" x="263.06" y="-115.95" font-family="sans-serif" font-size="14.00" fill="#343a40">Mejor Caso (Casi ordenado)</text>
<!-- b -->
<g id="node1" class="node">
<title>b</title>
<path fill="#e1f5fe" stroke="#0288d1" stroke-width="2" d="M331.25,-108C331.25,-108 188.5,-108 188.5,-108 182.5,-108 176.5,-102 176.5,-96 176.5,-96 176.5,-84 176.5,-84 176.5,-78 182.5,-72 188.5,-72 188.5,-72 331.25,-72 331.25,-72 337.25,-72 343.25,-78 343.25,-84 343.25,-84 343.25,-96 343.25,-96 343.25,-102 337.25,-108 331.25,-108"/>
<text xml:space="preserve" text-anchor="middle" x="259.88" y="-85.33" font-family="sans-serif" font-size="14.00" fill="#212529">Arreglo casi ordenado</text>
</g>
<!-- is -->
<g id="node2" class="node">
<title>is</title>
<path fill="#e8f5e9" stroke="#0288d1" stroke-width="2" d="M139.75,-36C139.75,-36 12,-36 12,-36 6,-36 0,-30 0,-24 0,-24 0,-12 0,-12 0,-6 6,0 12,0 12,0 139.75,0 139.75,0 145.75,0 151.75,-6 151.75,-12 151.75,-12 151.75,-24 151.75,-24 151.75,-30 145.75,-36 139.75,-36"/>
<text xml:space="preserve" text-anchor="middle" x="75.88" y="-13.32" font-family="sans-serif" font-size="14.00" fill="#212529">Insertion Sort: O(N)</text>
</g>
<!-- b&#45;&gt;is -->
<g id="edge1" class="edge">
<title>b&#45;&gt;is</title>
<path fill="none" stroke="#0288d1" stroke-width="2" d="M212.97,-71.15C189.27,-62.14 160.27,-51.11 135.05,-41.51"/>
<polygon fill="#0288d1" stroke="#0288d1" stroke-width="2" points="136.44,-38.29 125.85,-38.01 133.95,-44.84 136.44,-38.29"/>
</g>
<!-- bs -->
<g id="node3" class="node">
<title>bs</title>
<path fill="#e8f5e9" stroke="#0288d1" stroke-width="2" d="M337.62,-36C337.62,-36 182.12,-36 182.12,-36 176.12,-36 170.12,-30 170.12,-24 170.12,-24 170.12,-12 170.12,-12 170.12,-6 176.12,0 182.12,0 182.12,0 337.62,0 337.62,0 343.62,0 349.62,-6 349.62,-12 349.62,-12 349.62,-24 349.62,-24 349.62,-30 343.62,-36 337.62,-36"/>
<text xml:space="preserve" text-anchor="middle" x="259.88" y="-13.32" font-family="sans-serif" font-size="14.00" fill="#212529">Bubble Sort (Opt): O(N)</text>
</g>
<!-- b&#45;&gt;bs -->
<g id="edge2" class="edge">
<title>b&#45;&gt;bs</title>
<path fill="none" stroke="#0288d1" stroke-width="2" d="M259.88,-71.34C259.88,-64.75 259.88,-57.08 259.88,-49.67"/>
<polygon fill="#0288d1" stroke="#0288d1" stroke-width="2" points="263.38,-49.93 259.88,-39.93 256.38,-49.93 263.38,-49.93"/>
</g>
<!-- ss -->
<g id="node4" class="node">
<title>ss</title>
<path fill="#ffcdd2" stroke="#0288d1" stroke-width="2" d="M514.12,-36C514.12,-36 379.62,-36 379.62,-36 373.62,-36 367.62,-30 367.62,-24 367.62,-24 367.62,-12 367.62,-12 367.62,-6 373.62,0 379.62,0 379.62,0 514.12,0 514.12,0 520.12,0 526.12,-6 526.12,-12 526.12,-12 526.12,-24 526.12,-24 526.12,-30 520.12,-36 514.12,-36"/>
<text xml:space="preserve" text-anchor="middle" x="446.88" y="-13.32" font-family="sans-serif" font-size="14.00" fill="#212529">Selection Sort: O(N²)</text>
</g>
<!-- b&#45;&gt;ss -->
<g id="edge3" class="edge">
<title>b&#45;&gt;ss</title>
<path fill="none" stroke="#0288d1" stroke-width="2" d="M307.55,-71.15C331.74,-62.1 361.38,-51.01 387.08,-41.38"/>
<polygon fill="#0288d1" stroke="#0288d1" stroke-width="2" points="387.99,-44.78 396.13,-38 385.54,-38.22 387.99,-44.78"/>
</g>
</g>
</svg>
