<?xml version="1.0" encoding="UTF-8" standalone="no"?>
<!DOCTYPE svg PUBLIC "-//W3C//DTD SVG 1.1//EN"
 "http://www.w3.org/Graphics/SVG/1.1/DTD/svg11.dtd">
<!-- Generated by graphviz version 15.1.1 (20260805.0921)
 -->
<!-- Title: L37_Tree Pages: 1 -->
<svg width="312pt" height="229pt"
 viewBox="0.00 0.00 312.00 229.00" xmlns="http://www.w3.org/2000/svg" xmlns:xlink="http://www.w3.org/1999/xlink">
<g id="graph0" class="graph" transform="scale(1 1) rotate(0) translate(4 225.25)">
<title>L37_Tree</title>
<polygon fill="white" stroke="none" points="-4,4 -4,-225.25 307.5,-225.25 307.5,4 -4,4"/>
<text xml:space="preserve" text-anchor="middle" x="151.75" y="-187.95" font-family="sans-serif" font-size="14.00" fill="#343a40">Merge Sort Divide Tree</text>
<!-- n0 -->
<g id="node1" class="node">
<title>n0</title>
<path fill="#e1f5fe" stroke="#0288d1" stroke-width="2" d="M235,-180C235,-180 67.5,-180 67.5,-180 61.5,-180 55.5,-174 55.5,-168 55.5,-168 55.5,-156 55.5,-156 55.5,-150 61.5,-144 67.5,-144 67.5,-144 235,-144 235,-144 241,-144 247,-150 247,-156 247,-156 247,-168 247,-168 247,-174 241,-180 235,-180"/>
<text xml:space="preserve" text-anchor="middle" x="151.25" y="-157.32" font-family="sans-serif" font-size="14.00" fill="#212529">56 25 37 58 19 30 40 70</text>
</g>
<!-- n1a -->
<g id="node2" class="node">
<title>n1a</title>
<path fill="#e1f5fe" stroke="#0288d1" stroke-width="2" d="M130,-108C130,-108 52.5,-108 52.5,-108 46.5,-108 40.5,-102 40.5,-96 40.5,-96 40.5,-84 40.5,-84 40.5,-78 46.5,-72 52.5,-72 52.5,-72 130,-72 130,-72 136,-72 142,-78 142,-84 142,-84 142,-96 142,-96 142,-102 136,-108 130,-108"/>
<text xml:space="preserve" text-anchor="middle" x="91.25" y="-85.33" font-family="sans-serif" font-size="14.00" fill="#212529">56 25 37 58</text>
</g>
<!-- n0&#45;&gt;n1a -->
<g id="edge1" class="edge">
<title>n0&#45;&gt;n1a</title>
<path fill="none" stroke="#0288d1" stroke-width="2" d="M136.11,-143.34C129.69,-135.85 122.06,-126.95 114.93,-118.63"/>
<polygon fill="#0288d1" stroke="#0288d1" stroke-width="2" points="117.73,-116.51 108.56,-111.2 112.41,-121.07 117.73,-116.51"/>
</g>
<!-- n1b -->
<g id="node3" class="node">
<title>n1b</title>
<path fill="#e1f5fe" stroke="#0288d1" stroke-width="2" d="M250,-108C250,-108 172.5,-108 172.5,-108 166.5,-108 160.5,-102 160.5,-96 160.5,-96 160.5,-84 160.5,-84 160.5,-78 166.5,-72 172.5,-72 172.5,-72 250,-72 250,-72 256,-72 262,-78 262,-84 262,-84 262,-96 262,-96 262,-102 256,-108 250,-108"/>
<text xml:space="preserve" text-anchor="middle" x="211.25" y="-85.33" font-family="sans-serif" font-size="14.00" fill="#212529">19 30 40 70</text>
</g>
<!-- n0&#45;&gt;n1b -->
<g id="edge2" class="edge">
<title>n0&#45;&gt;n1b</title>
<path fill="none" stroke="#0288d1" stroke-width="2" d="M166.39,-143.34C172.81,-135.85 180.44,-126.95 187.57,-118.63"/>
<polygon fill="#0288d1" stroke="#0288d1" stroke-width="2" points="190.09,-121.07 193.94,-111.2 184.77,-116.51 190.09,-121.07"/>
</g>
<!-- n2a -->
<g id="node4" class="node">
<title>n2a</title>
<path fill="#e1f5fe" stroke="#0288d1" stroke-width="2" d="M44.5,-36C44.5,-36 12,-36 12,-36 6,-36 0,-30 0,-24 0,-24 0,-12 0,-12 0,-6 6,0 12,0 12,0 44.5,0 44.5,0 50.5,0 56.5,-6 56.5,-12 56.5,-12 56.5,-24 56.5,-24 56.5,-30 50.5,-36 44.5,-36"/>
<text xml:space="preserve" text-anchor="middle" x="28.25" y="-13.32" font-family="sans-serif" font-size="14.00" fill="#212529">56 25</text>
</g>
<!-- n1a&#45;&gt;n2a -->
<g id="edge3" class="edge">
<title>n1a&#45;&gt;n2a</title>
<path fill="none" stroke="#0288d1" stroke-width="2" d="M75.35,-71.34C68.54,-63.77 60.43,-54.75 52.87,-46.35"/>
<polygon fill="#0288d1" stroke="#0288d1" stroke-width="2" points="55.68,-44.24 46.39,-39.15 50.47,-48.93 55.68,-44.24"/>
</g>
<!-- n2b -->
<g id="node5" class="node">
<title>n2b</title>
<path fill="#e1f5fe" stroke="#0288d1" stroke-width="2" d="M119.5,-36C119.5,-36 87,-36 87,-36 81,-36 75,-30 75,-24 75,-24 75,-12 75,-12 75,-6 81,0 87,0 87,0 119.5,0 119.5,0 125.5,0 131.5,-6 131.5,-12 131.5,-12 131.5,-24 131.5,-24 131.5,-30 125.5,-36 119.5,-36"/>
<text xml:space="preserve" text-anchor="middle" x="103.25" y="-13.32" font-family="sans-serif" font-size="14.00" fill="#212529">37 58</text>
</g>
<!-- n1a&#45;&gt;n2b -->
<g id="edge4" class="edge">
<title>n1a&#45;&gt;n2b</title>
<path fill="none" stroke="#0288d1" stroke-width="2" d="M94.28,-71.34C95.41,-64.75 96.72,-57.08 97.99,-49.67"/>
<polygon fill="#0288d1" stroke="#0288d1" stroke-width="2" points="101.43,-50.33 99.67,-39.89 94.53,-49.15 101.43,-50.33"/>
</g>
<!-- n2c -->
<g id="node6" class="node">
<title>n2c</title>
<path fill="#e1f5fe" stroke="#0288d1" stroke-width="2" d="M216.5,-36C216.5,-36 184,-36 184,-36 178,-36 172,-30 172,-24 172,-24 172,-12 172,-12 172,-6 178,0 184,0 184,0 216.5,0 216.5,0 222.5,0 228.5,-6 228.5,-12 228.5,-12 228.5,-24 228.5,-24 228.5,-30 222.5,-36 216.5,-36"/>
<text xml:space="preserve" text-anchor="middle" x="200.25" y="-13.32" font-family="sans-serif" font-size="14.00" fill="#212529">19 30</text>
</g>
<!-- n1b&#45;&gt;n2c -->
<g id="edge5" class="edge">
<title>n1b&#45;&gt;n2c</title>
<path fill="none" stroke="#0288d1" stroke-width="2" d="M208.47,-71.34C207.44,-64.75 206.23,-57.08 205.07,-49.67"/>
<polygon fill="#0288d1" stroke="#0288d1" stroke-width="2" points="208.54,-49.23 203.53,-39.89 201.63,-50.31 208.54,-49.23"/>
</g>
<!-- n2d -->
<g id="node7" class="node">
<title>n2d</title>
<path fill="#e1f5fe" stroke="#0288d1" stroke-width="2" d="M291.5,-36C291.5,-36 259,-36 259,-36 253,-36 247,-30 247,-24 247,-24 247,-12 247,-12 247,-6 253,0 259,0 259,0 291.5,0 291.5,0 297.5,0 303.5,-6 303.5,-12 303.5,-12 303.5,-24 303.5,-24 303.5,-30 297.5,-36 291.5,-36"/>
<text xml:space="preserve" text-anchor="middle" x="275.25" y="-13.32" font-family="sans-serif" font-size="14.00" fill="#212529">40 70</text>
</g>
<!-- n1b&#45;&gt;n2d -->
<g id="edge6" class="edge">
<title>n1b&#45;&gt;n2d</title>
<path fill="none" stroke="#0288d1" stroke-width="2" d="M227.4,-71.34C234.32,-63.77 242.56,-54.75 250.24,-46.35"/>
<polygon fill="#0288d1" stroke="#0288d1" stroke-width="2" points="252.68,-48.88 256.84,-39.14 247.51,-44.15 252.68,-48.88"/>
</g>
</g>
</svg>
