<?xml version="1.0" encoding="UTF-8" standalone="no"?>
<!DOCTYPE svg PUBLIC "-//W3C//DTD SVG 1.1//EN"
 "http://www.w3.org/Graphics/SVG/1.1/DTD/svg11.dtd">
<!-- Generated by graphviz version 15.1.1 (20260805.0921)
 -->
<!-- Title: L38_Trees Pages: 1 -->
<svg width="430pt" height="288pt"
 viewBox="0.00 0.00 430.00 288.00" xmlns="http://www.w3.org/2000/svg" xmlns:xlink="http://www.w3.org/1999/xlink">
<g id="graph0" class="graph" transform="scale(1 1) rotate(0) translate(4 284.25)">
<title>L38_Trees</title>
<polygon fill="white" stroke="none" points="-4,4 -4,-284.25 426,-284.25 426,4 -4,4"/>
<text xml:space="preserve" text-anchor="middle" x="211" y="-246.95" font-family="sans-serif" font-size="14.00" fill="#343a40">Best vs Worst Case Trees</text>
<g id="clust1" class="cluster">
<title>cluster_b</title>
<polygon fill="white" stroke="green" points="8,-8 8,-139 265.25,-139 265.25,-8 8,-8"/>
<text xml:space="preserve" text-anchor="middle" x="136.62" y="-121.7" font-family="sans-serif" font-size="14.00" fill="#343a40">Best Case O(N log N)</text>
</g>
<g id="clust2" class="cluster">
<title>cluster_w</title>
<polygon fill="white" stroke="red" points="8,-147 8,-231 414,-231 414,-147 8,-147"/>
<text xml:space="preserve" text-anchor="middle" x="211" y="-213.7" font-family="sans-serif" font-size="14.00" fill="#343a40">Worst Case O(N²)</text>
</g>
<!-- b1 -->
<g id="node1" class="node">
<title>b1</title>
<path fill="#e1f5fe" stroke="#0288d1" stroke-width="2" d="M123.5,-79C123.5,-79 28,-79 28,-79 22,-79 16,-73 16,-67 16,-67 16,-55 16,-55 16,-49 22,-43 28,-43 28,-43 123.5,-43 123.5,-43 129.5,-43 135.5,-49 135.5,-55 135.5,-55 135.5,-67 135.5,-67 135.5,-73 129.5,-79 123.5,-79"/>
<text xml:space="preserve" text-anchor="middle" x="75.75" y="-56.33" font-family="sans-serif" font-size="14.00" fill="#212529">1 2 3 4 5 6 7 8</text>
</g>
<!-- b2 -->
<g id="node2" class="node">
<title>b2</title>
<path fill="#e1f5fe" stroke="#0288d1" stroke-width="2" d="M245.25,-52C245.25,-52 203.75,-52 203.75,-52 197.75,-52 191.75,-46 191.75,-40 191.75,-40 191.75,-28 191.75,-28 191.75,-22 197.75,-16 203.75,-16 203.75,-16 245.25,-16 245.25,-16 251.25,-16 257.25,-22 257.25,-28 257.25,-28 257.25,-40 257.25,-40 257.25,-46 251.25,-52 245.25,-52"/>
<text xml:space="preserve" text-anchor="middle" x="224.5" y="-29.32" font-family="sans-serif" font-size="14.00" fill="#212529">1 2 3 4</text>
</g>
<!-- b1&#45;&gt;b2 -->
<g id="edge1" class="edge">
<title>b1&#45;&gt;b2</title>
<path fill="none" stroke="#0288d1" stroke-width="2" d="M136.44,-50.02C150.37,-47.46 164.97,-44.77 178.16,-42.34"/>
<polygon fill="#0288d1" stroke="#0288d1" stroke-width="2" points="178.62,-45.82 187.82,-40.57 177.35,-38.93 178.62,-45.82"/>
</g>
<!-- b3 -->
<g id="node3" class="node">
<title>b3</title>
<path fill="#e1f5fe" stroke="#0288d1" stroke-width="2" d="M245.25,-106C245.25,-106 203.75,-106 203.75,-106 197.75,-106 191.75,-100 191.75,-94 191.75,-94 191.75,-82 191.75,-82 191.75,-76 197.75,-70 203.75,-70 203.75,-70 245.25,-70 245.25,-70 251.25,-70 257.25,-76 257.25,-82 257.25,-82 257.25,-94 257.25,-94 257.25,-100 251.25,-106 245.25,-106"/>
<text xml:space="preserve" text-anchor="middle" x="224.5" y="-83.33" font-family="sans-serif" font-size="14.00" fill="#212529">5 6 7 8</text>
</g>
<!-- b1&#45;&gt;b3 -->
<g id="edge2" class="edge">
<title>b1&#45;&gt;b3</title>
<path fill="none" stroke="#0288d1" stroke-width="2" d="M136.44,-71.98C150.37,-74.54 164.97,-77.23 178.16,-79.66"/>
<polygon fill="#0288d1" stroke="#0288d1" stroke-width="2" points="177.35,-83.07 187.82,-81.43 178.62,-76.18 177.35,-83.07"/>
</g>
<!-- w1 -->
<g id="node4" class="node">
<title>w1</title>
<path fill="#e1f5fe" stroke="#0288d1" stroke-width="2" d="M123.5,-197.25C123.5,-197.25 28,-197.25 28,-197.25 22,-197.25 16,-191.25 16,-185.25 16,-185.25 16,-166.75 16,-166.75 16,-160.75 22,-154.75 28,-154.75 28,-154.75 123.5,-154.75 123.5,-154.75 129.5,-154.75 135.5,-160.75 135.5,-166.75 135.5,-166.75 135.5,-185.25 135.5,-185.25 135.5,-191.25 129.5,-197.25 123.5,-197.25"/>
<text xml:space="preserve" text-anchor="middle" x="75.75" y="-179.95" font-family="sans-serif" font-size="14.00" fill="#212529">1 2 3 4 5 6 7 8</text>
<text xml:space="preserve" text-anchor="middle" x="75.75" y="-162.7" font-family="sans-serif" font-size="14.00" fill="#212529">(Pivot 1)</text>
</g>
<!-- w2 -->
<g id="node5" class="node">
<title>w2</title>
<path fill="#e1f5fe" stroke="#0288d1" stroke-width="2" d="M265.5,-197.25C265.5,-197.25 183.5,-197.25 183.5,-197.25 177.5,-197.25 171.5,-191.25 171.5,-185.25 171.5,-185.25 171.5,-166.75 171.5,-166.75 171.5,-160.75 177.5,-154.75 183.5,-154.75 183.5,-154.75 265.5,-154.75 265.5,-154.75 271.5,-154.75 277.5,-160.75 277.5,-166.75 277.5,-166.75 277.5,-185.25 277.5,-185.25 277.5,-191.25 271.5,-197.25 265.5,-197.25"/>
<text xml:space="preserve" text-anchor="middle" x="224.5" y="-179.95" font-family="sans-serif" font-size="14.00" fill="#212529">2 3 4 5 6 7 8</text>
<text xml:space="preserve" text-anchor="middle" x="224.5" y="-162.7" font-family="sans-serif" font-size="14.00" fill="#212529">(Pivot 2)</text>
</g>
<!-- w1&#45;&gt;w2 -->
<g id="edge3" class="edge">
<title>w1&#45;&gt;w2</title>
<path fill="none" stroke="#0288d1" stroke-width="2" d="M136.44,-176C143.58,-176 150.9,-176 158.12,-176"/>
<polygon fill="#0288d1" stroke="#0288d1" stroke-width="2" points="157.91,-179.5 167.91,-176 157.91,-172.5 157.91,-179.5"/>
</g>
<!-- w3 -->
<g id="node6" class="node">
<title>w3</title>
<path fill="#e1f5fe" stroke="#0288d1" stroke-width="2" d="M394,-197.25C394,-197.25 325.5,-197.25 325.5,-197.25 319.5,-197.25 313.5,-191.25 313.5,-185.25 313.5,-185.25 313.5,-166.75 313.5,-166.75 313.5,-160.75 319.5,-154.75 325.5,-154.75 325.5,-154.75 394,-154.75 394,-154.75 400,-154.75 406,-160.75 406,-166.75 406,-166.75 406,-185.25 406,-185.25 406,-191.25 400,-197.25 394,-197.25"/>
<text xml:space="preserve" text-anchor="middle" x="359.75" y="-179.95" font-family="sans-serif" font-size="14.00" fill="#212529">3 4 5 6 7 8</text>
<text xml:space="preserve" text-anchor="middle" x="359.75" y="-162.7" font-family="sans-serif" font-size="14.00" fill="#212529">(Pivot 3)</text>
</g>
<!-- w2&#45;&gt;w3 -->
<g id="edge4" class="edge">
<title>w2&#45;&gt;w3</title>
<path fill="none" stroke="#0288d1" stroke-width="2" d="M278.16,-176C285.17,-176 292.39,-176 299.49,-176"/>
<polygon fill="#0288d1" stroke="#0288d1" stroke-width="2" points="299.48,-179.5 309.48,-176 299.48,-172.5 299.48,-179.5"/>
</g>
</g>
</svg>
