<?xml version="1.0" encoding="UTF-8" standalone="no"?>
<!DOCTYPE svg PUBLIC "-//W3C//DTD SVG 1.1//EN"
 "http://www.w3.org/Graphics/SVG/1.1/DTD/svg11.dtd">
<!-- Generated by graphviz version 15.1.1 (20260805.0921)
 -->
<!-- Title: L39_Subset Pages: 1 -->
<svg width="200pt" height="256pt"
 viewBox="0.00 0.00 200.00 256.00" xmlns="http://www.w3.org/2000/svg" xmlns:xlink="http://www.w3.org/1999/xlink">
<g id="graph0" class="graph" transform="scale(1 1) rotate(0) translate(4 252.25)">
<title>L39_Subset</title>
<polygon fill="white" stroke="none" points="-4,4 -4,-252.25 196.25,-252.25 196.25,4 -4,4"/>
<text xml:space="preserve" text-anchor="middle" x="96.12" y="-214.95" font-family="sans-serif" font-size="14.00" fill="#343a40">Subset Backtracking Tree</text>
<!-- r -->
<g id="node1" class="node">
<title>r</title>
<path fill="#e1f5fe" stroke="#0288d1" stroke-width="2" d="M146.25,-207C146.25,-207 116.25,-207 116.25,-207 110.25,-207 104.25,-201 104.25,-195 104.25,-195 104.25,-183 104.25,-183 104.25,-177 110.25,-171 116.25,-171 116.25,-171 146.25,-171 146.25,-171 152.25,-171 158.25,-177 158.25,-183 158.25,-183 158.25,-195 158.25,-195 158.25,-201 152.25,-207 146.25,-207"/>
<text xml:space="preserve" text-anchor="middle" x="131.25" y="-184.32" font-family="sans-serif" font-size="14.00" fill="#212529">{}</text>
</g>
<!-- a1 -->
<g id="node2" class="node">
<title>a1</title>
<path fill="#e1f5fe" stroke="#0288d1" stroke-width="2" d="M96.25,-121.5C96.25,-121.5 66.25,-121.5 66.25,-121.5 60.25,-121.5 54.25,-115.5 54.25,-109.5 54.25,-109.5 54.25,-97.5 54.25,-97.5 54.25,-91.5 60.25,-85.5 66.25,-85.5 66.25,-85.5 96.25,-85.5 96.25,-85.5 102.25,-85.5 108.25,-91.5 108.25,-97.5 108.25,-97.5 108.25,-109.5 108.25,-109.5 108.25,-115.5 102.25,-121.5 96.25,-121.5"/>
<text xml:space="preserve" text-anchor="middle" x="81.25" y="-98.83" font-family="sans-serif" font-size="14.00" fill="#212529">{A}</text>
</g>
<!-- r&#45;&gt;a1 -->
<g id="edge1" class="edge">
<title>r&#45;&gt;a1</title>
<path fill="none" stroke="#0288d1" stroke-width="2" d="M120.65,-170.29C114.26,-159.63 105.97,-145.78 98.65,-133.55"/>
<polygon fill="#0288d1" stroke="#0288d1" stroke-width="2" points="101.71,-131.85 93.57,-125.07 95.7,-135.45 101.71,-131.85"/>
<text xml:space="preserve" text-anchor="middle" x="119.37" y="-142.55" font-family="sans-serif" font-size="11.00" fill="#495057"> +A</text>
</g>
<!-- a0 -->
<g id="node3" class="node">
<title>a0</title>
<path fill="#e1f5fe" stroke="#0288d1" stroke-width="2" d="M168.25,-121.5C168.25,-121.5 138.25,-121.5 138.25,-121.5 132.25,-121.5 126.25,-115.5 126.25,-109.5 126.25,-109.5 126.25,-97.5 126.25,-97.5 126.25,-91.5 132.25,-85.5 138.25,-85.5 138.25,-85.5 168.25,-85.5 168.25,-85.5 174.25,-85.5 180.25,-91.5 180.25,-97.5 180.25,-97.5 180.25,-109.5 180.25,-109.5 180.25,-115.5 174.25,-121.5 168.25,-121.5"/>
<text xml:space="preserve" text-anchor="middle" x="153.25" y="-98.83" font-family="sans-serif" font-size="14.00" fill="#212529">{} </text>
</g>
<!-- r&#45;&gt;a0 -->
<g id="edge2" class="edge">
<title>r&#45;&gt;a0</title>
<path fill="none" stroke="#0288d1" stroke-width="2" d="M135.92,-170.29C138.64,-159.96 142.15,-146.64 145.3,-134.69"/>
<polygon fill="#0288d1" stroke="#0288d1" stroke-width="2" points="148.58,-135.96 147.74,-125.4 141.81,-134.18 148.58,-135.96"/>
<text xml:space="preserve" text-anchor="middle" x="151.07" y="-142.55" font-family="sans-serif" font-size="11.00" fill="#495057"> &#45;A</text>
</g>
<!-- b1 -->
<g id="node4" class="node">
<title>b1</title>
<path fill="#e1f5fe" stroke="#0288d1" stroke-width="2" d="M62.5,-36C62.5,-36 24,-36 24,-36 18,-36 12,-30 12,-24 12,-24 12,-12 12,-12 12,-6 18,0 24,0 24,0 62.5,0 62.5,0 68.5,0 74.5,-6 74.5,-12 74.5,-12 74.5,-24 74.5,-24 74.5,-30 68.5,-36 62.5,-36"/>
<text xml:space="preserve" text-anchor="middle" x="43.25" y="-13.32" font-family="sans-serif" font-size="14.00" fill="#212529">{A, B}</text>
</g>
<!-- a1&#45;&gt;b1 -->
<g id="edge3" class="edge">
<title>a1&#45;&gt;b1</title>
<path fill="none" stroke="#0288d1" stroke-width="2" d="M73.19,-84.79C68.44,-74.35 62.3,-60.85 56.82,-48.81"/>
<polygon fill="#0288d1" stroke="#0288d1" stroke-width="2" points="60.01,-47.38 52.68,-39.73 53.64,-50.28 60.01,-47.38"/>
<text xml:space="preserve" text-anchor="middle" x="74.65" y="-57.05" font-family="sans-serif" font-size="11.00" fill="#495057"> +B</text>
</g>
<!-- b0 -->
<g id="node5" class="node">
<title>b0</title>
<path fill="#e1f5fe" stroke="#0288d1" stroke-width="2" d="M134.25,-36C134.25,-36 104.25,-36 104.25,-36 98.25,-36 92.25,-30 92.25,-24 92.25,-24 92.25,-12 92.25,-12 92.25,-6 98.25,0 104.25,0 104.25,0 134.25,0 134.25,0 140.25,0 146.25,-6 146.25,-12 146.25,-12 146.25,-24 146.25,-24 146.25,-30 140.25,-36 134.25,-36"/>
<text xml:space="preserve" text-anchor="middle" x="119.25" y="-13.32" font-family="sans-serif" font-size="14.00" fill="#212529">{A}</text>
</g>
<!-- a1&#45;&gt;b0 -->
<g id="edge4" class="edge">
<title>a1&#45;&gt;b0</title>
<path fill="none" stroke="#0288d1" stroke-width="2" d="M89.31,-84.79C94.06,-74.35 100.2,-60.85 105.68,-48.81"/>
<polygon fill="#0288d1" stroke="#0288d1" stroke-width="2" points="108.86,-50.28 109.82,-39.73 102.49,-47.38 108.86,-50.28"/>
<text xml:space="preserve" text-anchor="middle" x="110.03" y="-57.05" font-family="sans-serif" font-size="11.00" fill="#495057"> &#45;B</text>
</g>
</g>
</svg>
